<svg width="55" height="36" viewBox="0 0 55 36" fill="none" xmlns="http://www.w3.org/2000/svg">
<path d="M48.4256 29.394C47.4653 29.1066 46.5276 28.7336 45.5987 28.3524C44.4023 27.8616 43.1667 27.6103 41.8812 27.7034C41.178 27.7544 40.6287 27.6755 40.3774 26.9012C40.3056 26.6802 40.1199 26.4658 39.9313 26.3186C39.483 25.9679 39.457 25.6118 39.6706 25.0876C41.2329 21.2488 43.7019 18.1431 47.2995 16.0861C48.7451 15.26 49.2191 14.1614 49.287 12.6678C49.2975 12.4322 49.4354 12.1641 49.594 11.9795C50.2881 11.1727 50.6545 10.2562 50.7213 9.1914C50.894 6.43006 50.3144 3.78132 49.5704 1.15461C49.506 0.926824 49.3835 0.71559 49.2881 0.496946C49.2363 0.492231 49.1844 0.487515 49.1327 0.482415C48.9717 0.923744 48.8103 1.36507 48.6368 1.84018C48.4844 1.3824 48.3438 0.960698 48.1801 0.46875C47.3407 1.05655 47.2535 1.89831 47.0619 2.77702C46.9395 2.57522 46.8918 2.43269 46.7938 2.34907C46.6045 2.1873 46.3355 1.90389 46.1926 1.95133C45.9528 2.03101 45.6638 2.30393 45.6135 2.54182C45.5032 3.06322 45.5295 3.61368 45.502 4.11429C45.1922 3.76996 44.8757 3.34942 44.4855 3.01414C44.3088 2.86219 43.9036 2.75306 43.7529 2.85275C43.5836 2.96506 43.5468 3.33094 43.5236 3.59289C43.5043 3.80999 43.5883 4.03614 43.6425 4.35381C43.2805 4.1037 43.0079 3.89478 42.7159 3.7178C42.0637 3.32286 41.7834 3.45518 41.62 4.21485C41.6051 4.28318 41.5901 4.35189 41.5761 4.41704C40.6294 4.55331 40.4366 4.70834 40.2391 5.50583C39.6559 5.5553 39.1998 5.77519 39.1071 6.44661C39.0965 6.52437 38.9452 6.62994 38.8495 6.64178C38.1754 6.72463 38.0618 7.24718 37.8133 7.67283C37.591 7.94565 37.3704 8.22021 37.1451 8.49072C37.083 8.5653 37.0182 8.66664 36.9362 8.69021C36.3974 8.84486 36.2215 9.1634 36.4827 9.7024C36.0248 9.91017 35.3161 9.78285 35.3618 10.6047C35.1501 10.6467 34.9286 10.651 34.7429 10.7347C34.0605 11.0414 33.2847 11.2589 32.755 11.7414C32.4456 12.0234 32.115 12.1988 31.797 12.4301C31.6191 12.5597 31.5429 12.829 31.4797 13.0826C31.0553 13.2966 30.5264 13.3841 30.4267 14.0504C30.4071 14.18 30.0436 14.257 29.8397 14.3602C29.6826 14.4399 29.5185 14.509 29.3736 14.6068C29.0965 14.7933 28.8513 14.9994 29.3198 15.2613C28.9978 15.4698 28.6802 15.6257 28.4253 15.8519C28.0096 16.2213 28.3225 16.4549 28.6916 16.6747C28.4262 16.8435 28.1957 16.9928 27.9624 17.1385C27.6272 17.3482 27.3625 17.5484 27.4084 18.0463C27.4516 18.512 27.0747 18.7353 26.5843 18.6282C25.7735 18.4511 24.9709 18.2285 24.155 18.0812C23.2386 17.9159 22.5664 17.4157 22.0666 16.6704C21.5455 15.8934 21.0669 15.0881 20.56 14.3017C20.423 14.0889 20.2502 13.8989 20.0315 13.732C19.9251 14.8342 20.3644 15.7388 20.9577 16.6367C20.09 16.0435 19.2223 15.4506 18.3546 14.8573C18.3123 14.9118 18.2702 14.966 18.2278 15.0206C18.7367 15.4772 19.2455 15.9342 19.754 16.3909C18.0299 15.9029 16.4507 14.8451 14.5068 15.2837C15.5363 16.078 16.5289 16.844 17.4982 17.592C17.4197 17.9559 17.3019 18.2857 17.2925 18.6187C17.2858 18.8597 17.4342 19.1023 17.4904 19.3498C17.5167 19.4648 17.4925 19.5924 17.4829 19.7137C17.4778 19.78 17.4335 19.8982 17.4441 19.9025C17.9411 20.1067 17.5783 20.7197 17.9588 20.9885C18.0181 21.0307 17.9463 21.2309 17.9769 21.3471C18.0291 21.5442 18.0958 21.7441 18.2031 21.9133C18.2227 21.9443 18.4614 21.8132 18.6042 21.7935C18.9038 21.7531 19.207 21.737 19.5085 21.7112C19.5183 21.7574 19.5277 21.8034 19.5375 21.8497C19.3993 21.8728 19.2545 21.8779 19.1241 21.9239C18.9518 21.9845 18.6569 22.07 18.6526 22.1572C18.6427 22.3437 18.7558 22.5593 18.8725 22.7246C19.1854 23.1699 19.5274 23.5946 19.8572 24.0282C19.8891 24.0702 19.9094 24.1256 19.9491 24.1562C20.3174 24.4392 20.7053 24.6999 21.0536 25.0058C21.2515 25.1793 21.387 25.4248 21.5507 25.6372C21.4451 25.7154 21.3548 25.7825 21.1749 25.9156C21.7556 26.1198 22.2488 26.293 22.7419 26.4661C22.7494 26.5082 22.7565 26.5497 22.764 26.5918C22.5861 26.6263 22.4094 26.6817 22.23 26.6916C20.206 26.8069 18.18 26.9047 16.1559 27.0304C15.9344 27.0442 15.7255 27.2165 15.5048 27.2994C15.3631 27.3524 15.2049 27.4215 15.0631 27.405C12.9586 27.1612 10.8552 26.9057 8.7523 26.6472C8.63374 26.6328 8.49083 26.5997 8.41115 26.522C7.69651 25.8262 6.71926 25.7713 5.84333 25.4874C5.6066 25.4108 5.24139 25.5341 5.00899 25.6821C4.53551 25.9833 4.1424 25.8462 3.73995 25.5867C3.35549 25.339 2.99231 25.2384 2.60246 25.6007C2.51335 25.6836 2.29817 25.6749 2.15363 25.6456C1.77081 25.5682 1.39511 25.4567 1.10497 25.3817C0.971873 25.544 0.899217 25.6318 0.733887 25.8329C1.27568 26.1351 1.83836 26.5097 2.4481 26.7752C3.36098 27.1725 4.30648 27.4949 5.24052 27.8427C5.3536 27.8848 5.48275 27.9063 5.60333 27.902C8.57946 27.794 11.5215 28.1753 14.4671 28.5086C14.8357 28.5503 15.2071 28.577 15.5715 28.6417C16.0909 28.734 16.6026 28.7085 17.104 29.0768C17.4428 29.3257 18.0844 29.2315 18.5784 29.1777C18.9289 29.1393 19.1987 29.0666 19.4794 29.3752C19.6286 29.5393 19.9211 29.5696 20.1442 29.6709C20.6271 29.8895 21.1073 30.1145 21.5883 30.3383C21.6201 30.3533 21.6456 30.3831 21.6783 30.3937C22.654 30.714 23.6182 31.0785 24.6089 31.342C26.1762 31.7586 27.7617 32.1064 29.3389 32.4849C30.9173 32.8634 32.4792 33.2612 34.1397 33.1925C34.9598 33.1587 35.8237 33.3684 36.6141 33.6299C37.5638 33.944 38.4378 34.4807 39.3793 34.8274C40.2007 35.1301 41.0646 35.3264 41.9216 35.5177C42.1568 35.5699 42.4415 35.458 42.6893 35.3775C42.9563 35.2907 43.1994 35.1297 43.4655 35.0402C44.3316 34.7489 44.9398 34.2341 45.0765 33.2796C45.0863 33.2109 45.1232 33.1465 45.146 33.0798C45.5092 32.0169 45.5092 32.017 44.7946 31.0934C46.5662 31.1712 48.2353 31.4841 49.9459 31.3682C51.608 31.2555 53.2892 31.7542 54.9689 31.4617C54.9788 31.4162 54.9889 31.3703 54.9988 31.3246C54.8134 31.2473 54.6337 31.1496 54.4416 31.0953C52.4365 30.5265 50.4218 29.9908 48.4256 29.394Z" fill="#EBEFE6"/>
</svg>
