<svg width="26" height="32" viewBox="0 0 26 32" fill="none" xmlns="http://www.w3.org/2000/svg">
<path d="M25.1896 13.1264C24.8634 12.3427 24.5764 11.545 24.22 10.7708C23.9113 10.1002 23.3932 9.70073 22.8089 9.35948C22.4751 9.16471 22.1014 9.03856 21.7454 8.90099C21.6367 8.85899 21.5672 8.72985 21.5899 8.61565C21.6481 8.32379 21.7129 8.01533 21.7547 7.70388C21.78 7.51438 21.7328 7.31624 21.7304 7.12187C21.7273 6.85805 21.7298 6.59412 21.7406 6.33056C21.7593 5.87392 21.6414 5.4432 21.5317 5.00581C21.4614 4.72533 21.5127 4.41216 21.4303 4.13748C21.3449 3.85193 21.447 3.50588 21.1738 3.27821C21.1677 3.27314 21.1643 3.26047 21.1651 3.25183C21.2088 2.80828 20.8815 2.49806 20.7321 2.12878C20.5804 1.75402 20.3311 1.39658 19.9108 1.21763C19.7618 1.15428 19.6255 1.06128 19.4721 0.960378C19.3748 0.896246 19.2649 0.936277 19.2267 1.04644C19.095 1.42731 18.9621 1.77233 18.8842 2.1292C18.8073 2.48332 18.6199 2.80404 18.6775 3.21004C18.7188 3.5006 18.5386 3.81883 18.4768 4.12879C18.444 4.29274 18.427 4.45964 18.4094 4.62784C18.3974 4.74369 18.3238 4.7667 18.2512 4.67532C18.0771 4.45587 17.9239 4.23533 17.7143 4.10619C17.3535 3.884 17.0853 3.55336 16.7319 3.34358C16.1798 3.01609 15.6189 2.67551 15.018 2.46662C14.4222 2.25938 13.7753 2.18407 13.1442 2.10215C12.978 2.08063 12.8006 2.14585 12.6007 2.20812C12.4895 2.24272 12.4416 2.34844 12.4954 2.45183C12.6813 2.80911 12.848 3.1427 13.0363 3.46362C13.348 3.9952 13.6717 4.52041 14.0093 5.03591C14.2007 5.32818 14.433 5.5934 14.6419 5.87449C14.8567 6.16381 15.055 6.46601 15.2802 6.74685C15.4362 6.94122 15.629 7.10558 15.7983 7.28976C15.9848 7.49281 16.1758 7.69327 16.3427 7.91184C16.8 8.51071 16.9776 9.21425 17.0728 9.94542C17.0764 9.97324 17.0806 10.0032 17.0933 10.0277C17.333 10.4878 17.0811 10.7819 16.7557 11.0587C16.7099 11.0978 16.7061 11.1851 16.6806 11.2493C16.6369 11.3586 16.6126 11.4838 16.543 11.573C16.3271 11.8488 16.2868 12.1675 16.26 12.4994C16.2434 12.7051 16.1823 12.9066 16.1531 13.112C16.1484 13.1449 16.1509 13.1789 16.1558 13.2103C16.164 13.2641 16.1282 13.3901 16.0798 13.4962C15.9002 13.891 15.7747 14.3251 15.4042 14.5912C15.3094 14.6591 15.2826 14.6906 15.3571 14.6817C15.4316 14.6729 15.4937 14.6724 15.496 14.6806C15.4983 14.6889 15.4113 14.7285 15.3023 14.7693C15.2858 14.7754 15.2691 14.7815 15.2525 14.7878C15.1432 14.8286 15.1052 14.8752 15.1674 14.8921C15.2297 14.909 15.1913 14.9541 15.0813 14.9932C14.9836 15.0278 14.8895 15.0611 14.7933 15.0953C14.6833 15.1341 14.6363 15.1867 14.688 15.2124C14.7397 15.2382 14.7007 15.2793 14.601 15.3044C14.5014 15.3295 14.4318 15.3755 14.4457 15.4068C14.4597 15.438 14.3782 15.4815 14.2642 15.5056C14.0591 15.5488 13.8536 15.5935 13.6455 15.6125C13.5782 15.6186 13.5059 15.6081 13.4345 15.5878C13.3225 15.5559 13.1446 15.5038 13.0281 15.5063C12.3469 15.5209 11.1831 15.7334 10.7122 15.8243C10.5978 15.8465 10.4113 15.875 10.2952 15.887C10.1374 15.9032 9.96896 15.9206 9.79529 15.9385C9.67943 15.9505 9.6003 15.9741 9.61887 15.9914C9.63723 16.0087 9.56255 16.0527 9.45192 16.0895C8.94336 16.2596 8.42533 16.4326 7.90518 16.6065C7.79461 16.6435 7.73466 16.6898 7.77159 16.7101C7.80852 16.7304 7.7509 16.7827 7.6412 16.8224C7.34769 16.9283 7.05393 17.0151 6.82393 17.1872C6.57495 17.3738 6.29825 17.5223 6.05263 17.7192C5.77598 17.9408 5.39087 18.0267 5.05283 18.1716C5.02076 18.1854 4.9887 18.199 4.94649 18.2174C4.88759 18.2427 4.88676 18.2843 4.94479 18.3103C5.00282 18.3362 4.97391 18.4137 4.8804 18.4833C4.67719 18.6345 4.47631 18.784 4.27331 18.9351C4.1798 19.0048 4.13191 19.0771 4.1663 19.0969C4.20069 19.1168 4.14582 19.1782 4.04367 19.2343C3.97488 19.2721 3.90713 19.3092 3.83984 19.3464C3.7377 19.4025 3.65965 19.4574 3.66529 19.469C3.67119 19.4806 3.73894 19.4787 3.81704 19.4645C3.89487 19.4504 3.88986 19.5044 3.80566 19.5848C3.43426 19.9393 3.07511 20.2826 2.71468 20.6247C2.67754 20.6599 2.63808 20.6926 2.58869 20.7334C2.51757 20.7919 2.53655 20.8186 2.63048 20.7926C2.7244 20.7669 2.74799 20.8247 2.68447 20.9225C2.5049 21.1976 2.33061 21.4696 2.14385 21.7327C2.02401 21.9014 1.87123 22.0467 1.73531 22.2041C1.73107 22.2092 1.73195 22.2187 1.73381 22.2292C1.73614 22.2433 1.77498 22.2478 1.82075 22.2393C1.86652 22.2309 1.84796 22.3003 1.77937 22.3947C1.66564 22.5506 1.55465 22.7032 1.43394 22.8688C1.36536 22.9629 1.38496 22.9991 1.47759 22.9492C1.57027 22.8994 1.60782 22.946 1.55822 23.0516C1.37529 23.4405 1.18449 23.7784 1.15537 24.1858C1.14105 24.3865 1.03554 24.5804 0.932772 24.7974C0.882965 24.9027 0.888655 24.9609 0.939288 24.9246C0.989922 24.8883 1.01526 24.9522 0.995405 25.067C0.901688 25.6079 0.810351 26.136 0.719841 26.6583C0.69998 26.7732 0.714359 26.8535 0.752114 26.8377C0.78987 26.8219 0.794111 26.8997 0.761631 27.0118C0.735874 27.1002 0.710997 27.1856 0.686275 27.2712C0.653794 27.383 0.661397 27.4649 0.702929 27.4539C0.744718 27.4429 0.744046 27.5229 0.723823 27.6377C0.671069 27.9375 0.705463 28.2551 0.485808 28.5016C0.408332 28.5885 0.370163 28.6375 0.425865 28.6375C0.481567 28.6375 0.471223 28.7141 0.403056 28.8088C0.384489 28.8346 0.366128 28.8603 0.347147 28.8864C0.27898 28.981 0.261034 29.0451 0.306857 29.0293C0.352681 29.0136 0.393592 29.0066 0.398246 29.0135C0.401453 29.0181 0.403936 29.0226 0.404143 29.027C0.405642 29.0548 0.407091 29.0831 0.403936 29.1105C0.345285 29.6159 0.508565 30.0078 0.989922 30.2254C1.33898 30.3832 1.59091 30.7382 2.04671 30.6949C2.18957 30.6814 2.34783 30.835 2.49999 30.9099C2.50588 30.9129 2.51478 30.9101 2.52424 30.9063C2.53733 30.9012 2.53795 30.8738 2.52574 30.8449C2.51349 30.816 2.59598 30.8118 2.71018 30.8358C2.79205 30.8531 2.87413 30.8704 2.95704 30.8879C3.07123 30.912 3.14866 30.8998 3.13051 30.8607C3.11235 30.8219 3.18538 30.8259 3.29596 30.8624C4.2506 31.1775 5.22361 31.0467 6.18855 31.0648C6.30502 31.0669 6.38674 31.0529 6.37133 31.0306C6.35571 31.008 6.43779 30.9899 6.55452 30.9901C6.88641 30.9908 7.22114 30.992 7.55556 30.9884C7.71108 30.9867 7.86743 30.9772 8.02145 30.9564C8.36415 30.9101 8.70643 30.8607 9.047 30.8017C9.42052 30.7369 9.79782 30.8846 10.1829 30.6597C10.4082 30.528 10.6131 30.4282 10.6925 30.2545C10.7408 30.1486 10.8174 30.0258 10.931 29.999C11.142 29.949 11.3414 29.9034 11.5364 29.8435C11.8096 29.7595 12.0458 29.6603 12.1036 29.2993C12.1446 29.0429 12.1241 28.8076 11.8915 28.6711C11.8687 28.6578 11.8563 28.6272 11.8476 28.5952C11.835 28.5472 11.7333 28.4995 11.6172 28.4898C11.5914 28.4877 11.565 28.4854 11.538 28.4831C11.422 28.4734 11.3764 28.3845 11.4366 28.2845C11.4714 28.2267 11.5039 28.1727 11.5351 28.1206C11.5952 28.0208 11.6579 27.9473 11.6752 27.9564C11.6925 27.9655 11.7115 28.0421 11.7174 28.1276C11.7233 28.213 11.7702 28.198 11.8217 28.0934C11.847 28.0421 11.8712 27.9929 11.8947 27.945C11.9462 27.8406 12.0006 27.7602 12.016 27.7656C12.0314 27.7711 12.0508 27.8435 12.0591 27.9268C12.0673 28.0102 12.1091 27.9902 12.1526 27.8819C12.1665 27.8471 12.1805 27.8125 12.1946 27.777C12.2379 27.6688 12.2792 27.6593 12.287 27.7555C12.2949 27.8517 12.3238 27.8374 12.3719 27.731C12.4679 27.5189 12.6182 27.3593 12.8541 27.259C13.1801 27.1206 13.4939 26.953 13.8199 26.814C13.8748 26.7905 13.9925 26.8243 14.0322 26.8722C14.1915 27.0638 14.3269 27.2751 14.4804 27.4722C14.6413 27.6792 14.8085 27.8817 14.9807 28.0795C15.1999 28.331 15.427 28.5756 15.6502 28.8237C15.6629 28.8378 15.6741 28.853 15.6857 28.8693C15.704 28.8955 15.7357 28.89 15.7562 28.8575C15.7766 28.825 15.8315 28.8849 15.879 28.9915C15.8956 29.0288 15.9125 29.0668 15.9298 29.1061C15.9771 29.2126 16.0243 29.2405 16.0351 29.1683C16.0458 29.0961 16.1081 29.1153 16.174 29.2113C16.3496 29.4675 16.5196 29.7157 16.6855 29.9575C16.7513 30.0538 16.8047 30.0714 16.8047 29.9974C16.8047 29.9233 16.8577 29.9417 16.9229 30.0381C17.0204 30.1822 17.113 30.319 17.212 30.4652C17.2775 30.5616 17.3203 30.5658 17.3082 30.4745C17.296 30.3831 17.301 30.2983 17.3192 30.2853C17.3373 30.272 17.4078 30.3376 17.4764 30.4317C17.5155 30.4851 17.5543 30.5384 17.5931 30.5919C17.6617 30.686 17.7402 30.7389 17.7634 30.7065C17.7875 30.6729 17.7898 30.6569 17.7908 30.6408C17.7914 30.6319 17.7836 30.6225 17.7845 30.6136C17.7847 30.6103 17.7891 30.6075 17.7969 30.6022C17.8047 30.5969 17.8874 30.6476 17.982 30.7157C18.0465 30.7621 18.112 30.8096 18.1794 30.8582C18.274 30.9263 18.3462 30.9389 18.3407 30.8867C18.3352 30.8343 18.4181 30.8279 18.5249 30.8747C18.617 30.9149 18.7048 30.9506 18.796 30.965C19.0296 31.0021 19.2818 30.9574 19.5048 31.0213C19.9511 31.149 20.3246 30.9527 20.6218 30.7162C20.8081 30.5679 20.9828 30.5277 21.1856 30.5094C21.3016 30.4989 21.4647 30.4303 21.5494 30.3501C21.6654 30.2399 21.7844 30.1268 21.8969 30.0202C21.9813 29.9401 22.0096 29.7896 21.9573 29.6854C21.8267 29.4249 21.6836 29.1983 21.404 29.1153C21.2924 29.0822 21.2396 29.0462 21.2932 29.0012C21.3468 28.9563 21.2957 28.9197 21.1793 28.9197C21.1467 28.9197 21.1153 28.9197 21.0847 28.9197C20.9682 28.9197 20.8737 28.9138 20.8735 28.9065C20.8733 28.8991 20.919 28.8809 20.976 28.8657C21.033 28.8505 20.9935 28.7984 20.8878 28.7493C20.8562 28.7347 20.8251 28.7202 20.7941 28.7058C20.6884 28.6569 20.6438 28.607 20.6947 28.595C20.7455 28.5827 20.7036 28.5279 20.601 28.4724C20.4075 28.3673 20.2133 28.2614 20.0169 28.1592C19.9755 28.1377 19.931 28.1223 19.8784 28.1054C19.8001 28.0803 19.7865 28.0446 19.8474 28.0267C19.9084 28.009 19.9035 27.9687 19.8369 27.9369C19.7702 27.905 19.7799 27.8691 19.8588 27.8568C19.9377 27.8446 19.9143 27.7986 19.8067 27.7541C19.7161 27.7167 19.6263 27.6797 19.5404 27.6442C19.4328 27.5996 19.383 27.5131 19.4328 27.4541C19.4775 27.4009 19.5103 27.3605 19.5009 27.3365C19.4761 27.2722 19.4401 27.2123 19.3999 27.1508C19.3357 27.0535 19.3156 26.9769 19.3564 26.9786C19.3971 26.9803 19.4152 26.9323 19.3973 26.8712C19.3863 26.8343 19.3762 26.7974 19.3686 26.76C19.3222 26.5328 19.3243 26.2825 19.2255 26.0816C19.0905 25.8067 19.1168 25.5937 19.2686 25.403C19.3411 25.3118 19.4334 25.2785 19.4534 25.3095C19.4737 25.3405 19.526 25.2956 19.5701 25.2091C19.6144 25.1226 19.6611 25.0787 19.6744 25.111C19.6876 25.1433 19.7594 25.097 19.8345 25.008C19.897 24.934 19.9607 24.8584 20.0255 24.7816C20.1006 24.6925 20.1747 24.656 20.1905 24.7002C20.2066 24.7443 20.2529 24.6915 20.3057 24.5874C20.5697 24.0654 21.0158 23.651 21.119 23.0555C21.1194 23.0529 21.1245 23.051 21.1302 23.0494C21.1372 23.0473 21.1681 23.069 21.1992 23.0981C21.2302 23.1272 21.2819 23.0601 21.3146 22.9483C21.4969 22.3216 21.6733 21.7146 21.8533 21.096C21.8858 20.9842 21.9719 20.8198 22.0403 20.7254C22.3783 20.2611 22.4649 19.9464 22.4765 19.7609C22.4839 19.6447 22.3737 19.4944 22.3117 19.3957C22.1895 19.2011 22.2157 18.9935 22.1998 18.7902C22.1783 18.5176 22.2085 18.241 22.2312 17.9699C22.241 17.8538 22.2589 17.7652 22.2836 17.7764C22.3081 17.7876 22.3072 17.7031 22.3093 17.5867C22.318 17.0872 22.7596 16.9608 23.1355 16.8038C23.2431 16.7588 23.4104 16.6898 23.513 16.6573C23.5778 16.6368 23.639 16.6122 23.6865 16.5717C23.8205 16.4575 23.9186 16.3005 24.0287 16.1589C24.1294 16.0296 24.2507 15.934 24.3845 15.835C24.613 15.6662 24.7775 15.4128 24.9813 15.2077C25.1505 15.0376 25.3256 14.8683 25.5202 14.7297C25.7679 14.5535 25.8209 14.2188 25.6462 13.9517C25.4752 13.6885 25.3097 13.4153 25.1896 13.1264Z" fill="#EBEFE6"/>
</svg>
