<svg width="330" height="172" viewBox="0 0 330 172" fill="none" xmlns="http://www.w3.org/2000/svg">
<path fill-rule="evenodd" clip-rule="evenodd" d="M330 8C330 3.58172 326.418 0 322 0H8C3.58172 0 0 3.58173 0 8V164C0 168.418 3.58171 172 7.99999 172H322C326.418 172 330 168.418 330 164V8ZM205.067 118.814C208.012 120.023 210.984 121.205 214.028 122.116C218.135 123.344 222.268 124.491 226.4 125.637C228.633 126.257 230.867 126.876 233.096 127.509C233.512 127.626 233.909 127.807 234.306 127.989C234.416 128.039 234.526 128.089 234.636 128.138C234.767 128.196 234.84 128.337 234.81 128.476V128.476C234.784 128.593 234.69 128.684 234.572 128.703C231.63 129.182 228.687 128.911 225.754 128.642C223.444 128.43 221.139 128.218 218.847 128.374C215.383 128.608 211.973 128.288 208.498 127.962C207.697 127.887 206.892 127.812 206.082 127.743C204.677 127.623 204.141 129.13 204.363 130.523V130.523C204.487 131.299 204.199 132.141 203.632 133.799C203.608 133.871 203.578 133.943 203.548 134.015C203.49 134.152 203.433 134.289 203.412 134.432C202.979 137.457 201.051 139.089 198.306 140.013C197.892 140.152 197.495 140.346 197.099 140.54C196.688 140.741 196.277 140.942 195.846 141.082C195.756 141.111 195.664 141.142 195.571 141.173C194.855 141.411 194.072 141.672 193.413 141.526C190.696 140.92 187.958 140.298 185.354 139.338C183.975 138.83 182.642 138.194 181.309 137.558C179.758 136.818 178.209 136.078 176.589 135.542C174.084 134.713 171.346 134.049 168.747 134.156C163.721 134.364 158.981 133.224 154.208 132.076C153.982 132.022 153.756 131.968 153.53 131.913C151.983 131.542 150.433 131.18 148.884 130.818C145.426 130.01 141.968 129.202 138.537 128.29C136.351 127.709 134.206 126.973 132.061 126.236C131.124 125.915 130.188 125.593 129.248 125.285C129.191 125.266 129.14 125.229 129.09 125.191C129.049 125.161 129.008 125.13 128.963 125.109C128.71 124.992 128.457 124.874 128.204 124.756C126.933 124.164 125.662 123.572 124.386 122.994C124.144 122.884 123.877 122.801 123.611 122.718C123.098 122.558 122.59 122.399 122.279 122.057C121.481 121.18 120.711 121.274 119.76 121.391C119.65 121.404 119.538 121.418 119.423 121.43C119.311 121.443 119.196 121.455 119.08 121.469C117.571 121.638 115.747 121.843 114.75 121.111C113.523 120.21 112.277 120.052 111.015 119.893C110.642 119.846 110.268 119.798 109.892 119.732C109.064 119.584 108.223 119.499 107.383 119.414C107.053 119.381 106.722 119.347 106.391 119.31C105.558 119.216 104.725 119.12 103.892 119.025C95.39 118.05 86.8881 117.075 78.2967 117.387C77.9145 117.401 77.5051 117.332 77.1467 117.199C76.3947 116.919 75.6403 116.644 74.8859 116.369C72.6703 115.562 70.4543 114.755 68.2958 113.815C66.9516 113.23 65.6796 112.478 64.4518 111.751C64.1486 111.572 63.8481 111.394 63.5498 111.221C63.1934 111.014 63.1033 110.536 63.3653 110.217V110.217C63.4157 110.156 63.4641 110.097 63.5117 110.04C63.8333 109.649 64.3518 109.48 64.8401 109.613V109.613C65.6046 109.82 66.4775 110.056 67.3624 110.235C67.8205 110.328 68.5026 110.355 68.785 110.093C70.0207 108.944 71.1719 109.263 72.3905 110.048C73.6661 110.871 74.9121 111.305 76.4128 110.351C77.1495 109.881 78.3071 109.491 79.0574 109.734C79.7922 109.972 80.5494 110.159 81.3078 110.347C83.415 110.868 85.5308 111.391 87.1965 113.013C87.449 113.259 87.902 113.364 88.2778 113.41C94.9432 114.229 101.61 115.039 108.281 115.812C108.681 115.858 109.122 115.69 109.531 115.534C109.581 115.514 109.632 115.495 109.681 115.477C109.937 115.381 110.189 115.246 110.439 115.112C110.872 114.881 111.3 114.652 111.744 114.624C115.674 114.38 119.607 114.169 123.538 113.959C126.025 113.825 128.511 113.692 130.997 113.55C131.387 113.529 131.774 113.44 132.16 113.35C132.26 113.327 132.359 113.304 132.459 113.282C132.587 113.254 132.671 113.131 132.649 113.002V113.002V113.002C132.631 112.899 132.559 112.814 132.46 112.78L132.246 112.704C131.051 112.285 129.844 111.861 128.5 111.389C128.139 111.262 128.067 110.784 128.374 110.557V110.557V110.557C128.632 110.365 128.684 109.999 128.5 109.735C128.457 109.675 128.416 109.615 128.374 109.555C128.036 109.07 127.699 108.585 127.268 108.207C126.53 107.558 125.735 106.973 124.94 106.389C124.547 106.1 124.154 105.811 123.768 105.514C123.687 105.452 123.632 105.359 123.576 105.264C123.545 105.211 123.513 105.157 123.476 105.108C123.166 104.7 122.851 104.294 122.537 103.888C121.795 102.928 121.052 101.968 120.355 100.977C119.985 100.452 119.627 99.7692 119.658 99.1781C119.67 98.9407 120.361 98.7071 120.902 98.5243C120.991 98.4943 121.076 98.4657 121.153 98.4387C121.439 98.3375 121.748 98.2988 122.057 98.2601C122.121 98.252 122.185 98.244 122.248 98.2355C122.366 98.2197 122.443 98.1069 122.418 97.991V97.991V97.991C122.391 97.8615 122.272 97.7728 122.14 97.7836C121.942 97.7997 121.744 97.8148 121.545 97.8299C120.864 97.882 120.181 97.9341 119.505 98.0254C119.282 98.056 118.985 98.1723 118.734 98.2708C118.475 98.3724 118.265 98.455 118.233 98.4051C117.893 97.8686 117.682 97.2351 117.516 96.6104C117.473 96.4449 117.495 96.2257 117.515 96.0223C117.54 95.773 117.563 95.5474 117.459 95.4738C116.9 95.0789 116.847 94.4498 116.795 93.824C116.734 93.0993 116.673 92.3789 115.827 92.0316C115.811 92.0249 115.836 91.9321 115.868 91.8143C115.902 91.6911 115.942 91.5406 115.951 91.4331C115.957 91.3476 115.966 91.2611 115.976 91.1742C116.007 90.8706 116.039 90.563 115.975 90.2795C115.907 89.9829 115.798 89.6884 115.689 89.3956C115.511 88.9143 115.334 88.4373 115.347 87.9622C115.368 87.2292 115.554 86.501 115.75 85.7381V85.7381C115.91 85.1107 115.673 84.456 115.16 84.0604C114.005 83.1691 112.839 82.2693 111.66 81.3594V81.3594C109.613 79.7801 110.434 76.9055 112.958 77.4633C114.914 77.8955 116.8 78.6185 118.687 79.342C119.718 79.7372 120.75 80.1326 121.793 80.4809C122.124 80.5913 122.352 80.1855 122.093 79.9524V79.9524C120.914 78.8934 119.734 77.8341 118.554 76.7754C118.418 76.6527 118.399 76.4452 118.512 76.3001V76.3001C118.625 76.154 118.833 76.1214 118.986 76.2259C120.378 77.1777 121.77 78.1292 123.162 79.0808V79.0808C123.98 79.6399 125.139 78.5582 124.782 77.634C124.447 76.7673 124.201 75.8752 124.075 74.9433C123.93 73.8732 125.119 73.3712 125.704 74.2791V74.2791C126.346 75.2757 126.974 76.2819 127.602 77.2881C128.545 78.7985 129.488 80.3089 130.479 81.787C132.063 84.1491 134.194 85.7346 137.099 86.2587C138.71 86.5496 140.304 86.9331 141.899 87.3166C142.864 87.5487 143.83 87.7808 144.799 87.9924C146.353 88.3319 147.548 87.624 147.411 86.1479C147.265 84.5697 148.104 83.9353 149.167 83.2706C149.652 82.9679 150.132 82.6604 150.643 82.3338V82.3338C151.026 82.089 151.01 81.5347 150.653 81.2528C149.953 80.6983 149.652 80.0648 150.634 79.1924C151.186 78.7028 151.831 78.317 152.509 77.9111V77.9111C152.948 77.6483 152.826 77.0487 152.664 76.5634C152.5 76.0725 153.047 75.645 153.64 75.246C153.975 75.0195 154.344 74.8416 154.712 74.6637C154.847 74.5981 154.983 74.5325 155.117 74.4645C155.325 74.3592 155.585 74.2625 155.845 74.1661C156.392 73.9629 156.936 73.7611 156.978 73.4826C157.236 71.758 158.401 71.2568 159.552 70.7616V70.7616C160.041 70.5512 160.374 70.113 160.542 69.6078C160.714 69.0883 160.946 68.6196 161.321 68.3466C161.671 68.0922 162.026 67.859 162.381 67.6257C163.048 67.1869 163.717 66.7473 164.358 66.1638C165.603 65.0295 167.277 64.3572 168.942 63.689C169.521 63.4563 170.1 63.224 170.658 62.9729C171.061 62.7917 171.516 62.728 171.977 62.6633V62.6633C172.347 62.6115 172.591 62.2814 172.639 61.9111C172.815 60.5613 173.871 60.317 174.94 60.0698V60.0698C175.628 59.9105 175.854 59.1781 175.801 58.4734C175.727 57.4881 176.361 56.8513 177.61 56.4926C177.821 56.4321 177.996 56.2095 178.16 56.0015C178.198 55.9529 178.235 55.9051 178.273 55.8603C178.788 55.2415 179.296 54.616 179.803 53.9906C179.868 53.9107 179.933 53.8307 179.998 53.7508C180.259 53.4292 180.498 53.0893 180.686 52.7201C180.727 52.639 180.768 52.5576 180.809 52.4762C181.38 51.339 181.945 50.2125 183.675 49.9998C183.978 49.9623 184.458 49.6277 184.491 49.3812C184.605 48.5613 184.889 47.9538 185.301 47.5078C186.544 46.1636 187.964 44.7832 189.481 43.7594C190.02 43.3961 190.773 43.1908 191.901 43.0112C192.15 42.9715 192.353 42.7846 192.406 42.5382V42.5382C192.423 42.4615 192.44 42.3843 192.456 42.3074C192.974 39.8995 193.863 39.4801 195.93 40.7319C196.551 41.1083 197.145 41.5304 197.814 42.0068C197.909 42.0739 198.004 42.1419 198.102 42.2111C198.386 42.4128 198.756 42.1723 198.68 41.8322V41.8322C198.555 41.2686 198.449 40.7959 198.49 40.336C198.564 39.5057 198.68 38.346 199.217 37.99C199.695 37.674 200.979 38.0199 201.539 38.5015C202.423 39.2614 203.188 40.1594 203.911 41.0084V41.0084C204.222 41.3736 204.794 41.1716 204.806 40.6921C204.806 40.6602 204.807 40.6282 204.808 40.5962C204.836 39.4128 204.865 38.1851 205.114 37.0045C205.274 36.2505 206.19 35.3854 206.95 35.1328C207.319 35.0105 207.952 35.5825 208.498 36.0762C208.623 36.1892 208.744 36.298 208.855 36.3935C209.059 36.567 209.194 36.8203 209.371 37.154V37.154C209.487 37.3715 209.797 37.3229 209.847 37.0816C209.862 37.0068 209.877 36.9322 209.893 36.8577C210.244 35.1557 210.58 33.5267 211.543 32.1335C212.23 31.1399 213.633 31.5852 214.015 32.7312V32.7312C214.063 32.8748 214.11 33.018 214.158 33.161C214.336 33.6961 215.089 33.707 215.283 33.1773V33.1773C215.561 32.4153 215.833 31.6724 216.103 30.9327C216.2 30.6644 216.468 30.4962 216.752 30.5221V30.5221V30.5221C216.758 30.5226 216.763 30.5263 216.765 30.5317C216.86 30.7481 216.963 30.9622 217.066 31.1764C217.291 31.6451 217.517 32.1141 217.656 32.6075C220.015 40.9332 221.852 49.3288 221.304 58.0812C221.093 61.4563 219.931 64.3611 217.731 66.9184C217.228 67.5035 216.791 68.3533 216.758 69.1C216.543 73.8343 215.04 77.3165 210.458 79.9349C199.055 86.4548 191.229 96.2986 186.278 108.466C185.601 110.128 185.683 111.257 187.104 112.368C187.702 112.835 188.29 113.514 188.518 114.215C189.314 116.669 191.055 116.919 193.284 116.757C197.359 116.462 201.275 117.259 205.067 118.814Z" fill="#C4CEB3"/>
</svg>
