<svg width="66" height="28" viewBox="0 0 66 28" fill="none" xmlns="http://www.w3.org/2000/svg">
<path d="M63.2208 7.88723C63.01 6.19425 60.9553 3.91897 60.9553 3.91897C60.2707 -1.37205 58.4791 1.48517 58.4791 1.48517C56.3191 -0.102373 56.6352 3.54874 56.6352 3.54874C53.5795 3.54874 44.5706 8.52273 38.9331 7.14678C33.2959 5.77094 23.5495 6.98826 21.8635 7.6228C20.1774 8.25734 17.4908 7.51688 16.1738 8.73384C14.8567 9.9508 11.1688 10.6916 5.53152 13.8131C-0.105204 16.9352 0.000136747 19.7923 0.000136747 19.7923C5.05802 22.1203 20.6523 15.6123 20.6523 15.6123C20.6523 16.0357 20.9685 16.1415 20.9685 16.1415C19.4931 16.7234 18.0707 18.4168 17.0173 18.5753C15.9634 18.7338 15.7003 19.263 15.7003 19.263C10.2213 25.8773 12.0124 25.7714 12.0124 25.7714C12.2232 26.6181 12.9079 26.0358 12.9079 26.0358C13.3818 26.1416 13.5926 26.3001 14.0671 24.9774C14.5415 23.6546 16.912 20.0034 20.2313 19.9507C23.5502 19.8976 25.4995 18.7337 25.4995 18.7337C22.0748 22.0674 21.8645 20.374 22.2332 22.2785C22.6018 24.1831 24.3933 26.6701 24.9736 27.0935C25.5538 27.5168 28.9242 27.0935 28.9242 27.0935C28.3448 26.2468 26.6063 26.5292 26.6063 26.5292C26.6063 26.5292 26.2376 25.5057 25.5524 24.7649C24.8676 24.0241 24.13 21.8019 27.5542 21.4312C30.9784 21.0605 32.9278 18.4151 33.4547 17.5687C33.9817 16.722 33.6655 15.4525 36.3526 16.7752C39.0395 18.0978 44.4661 18.3628 44.4661 18.3628C44.4661 18.3628 43.9922 19.1036 45.5199 21.2199C47.0478 23.3361 45.9415 23.7068 44.0975 23.6011C42.2537 23.4951 42.3065 25.2939 42.3065 25.2939C45.7837 25.9289 44.8352 24.7647 47.1006 24.7121C49.3661 24.6595 48.7868 22.0135 48.3124 21.0613C47.8385 20.1088 47.6277 18.151 47.6277 18.151C47.6277 18.151 50.2092 17.516 50.2092 19.6328C50.2092 21.7496 54.0025 22.4373 55.5829 22.8075C57.1636 23.1777 59.7448 24.342 60.4301 24.818C61.1153 25.2939 62.6955 27.0933 63.8543 26.3524C65.0135 25.6115 65.3821 24.6063 63.6435 24.4478C61.905 24.2893 58.7439 21.1673 57.69 20.9028C56.6362 20.6385 54.2128 18.7335 53.7389 18.4158C53.265 18.0983 54.0022 16.0348 54.3183 15.188C54.6344 14.3413 58.6386 10.1087 60.6403 12.1719C62.642 14.2355 64.2753 13.7063 63.6959 13.2304C63.1166 12.7543 61.2905 10.5317 61.2905 10.5317C65.0493 13.6006 66.2771 11.6959 65.9609 11.4311C65.6441 11.1678 63.4316 9.58069 63.2208 7.88723Z" fill="#EBEFE6"/>
</svg>
